<svg xmlns="http://www.w3.org/2000/svg" width="146" height="39" viewBox="0 0 146 39">
<style>
  .a{
    fill:#4E637B;
  }
  .b{
    fill:white;
  }
  .c{
    fill:#27313D !important;
  }
</style>
  <title>
    Logo
  </title>
  <desc>
    Created with Sketch.
  </desc>
  <defs>
    <path d="M0 0.3L146 0.3 146 38.7 0 38.7"/>
    <path d="M0 0.3L146 0.3 146 38.7 0 38.7 0 0.3Z"/>
    <path d="M0 0.3L146 0.3 146 38.7 0 38.7 0 0.3Z"/>
  </defs>
  <g fill="none">
        <g transform="translate(-25 -20)translate(25 20)">
          <path d="M25.5 14.6C28.9 16.6 30.6 17.5 34 19.5L34 11.1C34 10.2 33.5 9.4 32.8 9 30.1 7.5 28.4 6.5 25.5 4.8L25.5 14.6Z" class="a"/>
            <mask class="b">
              <use xlink:href="#path-1"/>
            </mask>
            <path d="M15.8 38.4C16.5 38.8 17.4 38.8 18.2 38.4 20.8 36.9 22.5 35.9 25.5 34.2 22.1 32.2 20.4 31.3 17 29.3 13.6 31.3 11.9 32.2 8.5 34.2 11.5 35.9 13.1 36.9 15.8 38.4" mask="url(#mask-2)" class="a"/>
          <path d="M24.3 25.1C25 24.7 25.5 23.9 25.5 23L25.5 14.6 17 19.5 17 29.3 24.3 25.1Z" fill="#C8ED1E"/>
          <path d="M18.2 10.4C17.4 10 16.5 10 15.8 10.4L8.5 14.6 17 19.5 25.5 14.6 18.2 10.4Z" fill="#F9FAF8"/>
          <path d="M8.5 23C8.5 23.9 8.9 24.7 9.7 25.1L17 29.3 17 19.5 8.5 14.6 8.5 23Z" fill="#88B2D7"/>
            <mask class="b">
              <use xlink:href="#path-3"/>
            </mask>
            <path d="M8.5 14.6C5.1 16.6 3.4 17.5 0 19.5L0 11.1C0 10.2 0.5 9.4 1.2 9 3.8 7.5 5.5 6.5 8.5 4.8L8.5 14.6Z" mask="url(#mask-4)" class="a"/>
          <path d="M34 27.9L34 19.5 25.5 14.6 25.5 23C25.5 23.4 25.4 23.8 25.1 24.2L33.6 29.1C33.8 28.7 34 28.3 34 27.9" fill="#5E9E2D"/>
          <path d="M25.1 24.2C24.9 24.6 24.6 24.9 24.3 25.1L17 29.3 25.5 34.2 32.8 30C33.1 29.8 33.4 29.5 33.6 29.1L25.1 24.2Z" fill="#6FBF2C"/>
          <path d="M17 10.1C17.4 10.1 17.8 10.2 18.2 10.4L25.5 14.6 25.5 4.8 18.2 0.6C17.8 0.4 17.4 0.3 17 0.3L17 10.1Z" fill="#BDD2E1"/>
          <path d="M1.2 30L8.5 34.2 17 29.3 9.7 25.1C9.3 24.9 9 24.6 8.8 24.2L0.3 29.1C0.5 29.5 0.8 29.8 1.2 30" fill="#418EDA"/>
          <path d="M8.8 24.2C8.6 23.8 8.5 23.4 8.5 23L8.5 14.6 0 19.5 0 27.9C0 28.3 0.1 28.7 0.3 29.1L8.8 24.2Z" fill="#3570AA"/>
          <path d="M15.8 0.6L8.5 4.8 8.5 14.6 15.8 10.4C16.2 10.2 16.6 10.1 17 10.1L17 0.3C16.6 0.3 16.2 0.4 15.8 0.6" fill="#A7BAC8"/>
          <mask class="b">
            <use xlink:href="#path-5"/>
          </mask>
          <path d="M44.6 26.4L41.7 26.4 41.7 13.7 44.6 13.7 44.6 26.4Z" mask="url(#mask-6)" class="c"/>
          <path d="M45.9 20.2C45.9 19 45.8 18 45.8 17.2L48.3 17.2 48.4 18.5 48.5 18.5C48.8 17.9 49.8 17 51.3 17 53.2 17 54.6 18.3 54.6 21L54.6 26.4 51.7 26.4 51.7 21.3C51.7 20.1 51.3 19.3 50.3 19.3 49.5 19.3 49 19.9 48.8 20.4 48.8 20.6 48.7 20.8 48.7 21.1L48.7 26.4 45.9 26.4 45.9 20.2Z" mask="url(#mask-6)" class="c"/>
          <path d="M56.1 23.9C56.6 24.2 57.7 24.6 58.6 24.6 59.4 24.6 59.8 24.3 59.8 23.9 59.8 23.4 59.5 23.1 58.5 22.8 56.5 22.1 55.8 21.1 55.8 20 55.8 18.3 57.3 17 59.6 17 60.6 17 61.6 17.3 62.1 17.5L61.7 19.5C61.2 19.3 60.4 19 59.7 19 59 19 58.6 19.3 58.6 19.7 58.6 20.2 58.9 20.4 60.1 20.8 61.8 21.4 62.5 22.3 62.5 23.6 62.5 25.4 61.2 26.6 58.6 26.6 57.4 26.6 56.3 26.3 55.6 26L56.1 23.9Z" mask="url(#mask-6)" class="c"/>
          <path d="M66.4 22.5C66.4 22.7 66.4 22.9 66.4 23.1 66.6 23.8 67.3 24.4 68.1 24.4 69.3 24.4 70.1 23.4 70.1 21.8 70.1 20.4 69.4 19.3 68.1 19.3 67.3 19.3 66.6 19.9 66.4 20.7 66.4 20.8 66.4 21 66.4 21.2L66.4 22.5ZM63.5 20.3C63.5 19.1 63.5 18.1 63.5 17.2L65.9 17.2 66.1 18.5 66.1 18.5C66.8 17.5 67.8 17 69.2 17 71.2 17 73 18.8 73 21.7 73 25 70.9 26.6 68.8 26.6 67.7 26.6 66.8 26.2 66.4 25.6L66.4 25.6 66.4 30.1 63.5 30.1 63.5 20.3Z" mask="url(#mask-6)" class="c"/>
          <path d="M74 17.2L76.9 17.2 76.9 26.4 74 26.4 74 17.2ZM77 14.7C77 15.5 76.4 16.1 75.4 16.1 74.5 16.1 73.9 15.5 73.9 14.7 73.9 13.9 74.5 13.2 75.5 13.2 76.4 13.2 76.9 13.9 77 14.7L77 14.7Z" mask="url(#mask-6)" class="c"/>
          <path d="M88.8 17.2L87.7 21.7C87.5 22.3 87.4 23 87.3 23.5L87.2 23.5C87.1 23 86.9 22.3 86.8 21.7 86.8 21.7 85.7 18.5 85.3 17.2 82.1 17.2 81.5 17.1 80.6 18.9L80.5 18.9 80.4 17.2 77.9 17.2C78 18 78 18.9 78 20.2L78 26.4 80.9 26.4 80.9 21.7C80.9 21.5 80.9 21.3 80.9 21.1 81.4 19.4 83.1 19.7 83.2 19.7L85.6 25.6C85.7 25.9 85.7 26 85.7 26.1 85.7 26.2 85.6 26.4 85.6 26.5 85.3 27 84.8 27.4 84.4 27.7 83.9 27.9 83.5 28.1 83.1 28.2L83.7 30.6C84.5 30.5 85.5 30.2 86.5 29.3 87.5 28.4 88.4 26.9 89.7 23.3L91.9 17.2 88.8 17.2Z" mask="url(#mask-6)" class="c"/>
          <path d="M93.9 15.1L90.1 15.1 90.1 13.7 99.4 13.7 99.4 15.1 95.6 15.1 95.6 26.4 93.9 26.4 93.9 15.1Z" mask="url(#mask-6)" class="c"/>
          <path d="M100.3 13.1L101.9 13.1 101.9 18.8 102 18.8C102.2 18.3 102.6 17.9 103.1 17.6 103.6 17.3 104.2 17.1 104.8 17.1 106.1 17.1 108 17.9 108 21L108 26.4 106.4 26.4 106.4 21.2C106.4 19.7 105.8 18.5 104.3 18.5 103.2 18.5 102.4 19.3 102 20.1 101.9 20.4 101.9 20.6 101.9 20.9L101.9 26.4 100.3 26.4 100.3 13.1Z" mask="url(#mask-6)" class="c"/>
          <path d="M115.3 21C115.4 19.9 114.9 18.3 113 18.3 111.4 18.3 110.6 19.8 110.5 21L115.3 21ZM110.5 22.2C110.5 24.4 111.9 25.3 113.6 25.3 114.8 25.3 115.5 25.1 116.1 24.8L116.4 26C115.8 26.3 114.8 26.6 113.4 26.6 110.6 26.6 108.9 24.8 108.9 22 108.9 19.3 110.5 17.1 113.2 17.1 116.2 17.1 116.9 19.7 116.9 21.4 116.9 21.7 116.9 22 116.9 22.2L110.5 22.2Z" mask="url(#mask-6)" class="c"/>
          <path d="M117.8 19.8C117.8 18.8 117.8 18.1 117.8 17.3L119.2 17.3 119.3 18.8 119.4 18.8C119.9 17.9 120.7 17.1 122.2 17.1 123.4 17.1 124.4 17.9 124.8 19L124.8 19C125.1 18.4 125.5 18 125.9 17.8 126.4 17.4 127 17.1 127.8 17.1 129.1 17.1 130.8 17.9 130.8 21.1L130.8 26.4 129.2 26.4 129.2 21.3C129.2 19.5 128.6 18.5 127.3 18.5 126.3 18.5 125.6 19.2 125.3 20 125.2 20.2 125.2 20.5 125.2 20.8L125.2 26.4 123.5 26.4 123.5 21C123.5 19.5 122.9 18.5 121.6 18.5 120.6 18.5 119.9 19.3 119.6 20.1 119.5 20.4 119.5 20.7 119.5 20.9L119.5 26.4 117.8 26.4 117.8 19.8Z" mask="url(#mask-6)" class="c"/>
          <path d="M137.8 21C137.8 19.9 137.3 18.3 135.5 18.3 133.8 18.3 133.1 19.8 132.9 21L137.8 21ZM132.9 22.2C133 24.4 134.4 25.3 136 25.3 137.2 25.3 138 25.1 138.6 24.8L138.9 26C138.3 26.3 137.3 26.6 135.8 26.6 133 26.6 131.4 24.8 131.4 22 131.4 19.3 133 17.1 135.6 17.1 138.6 17.1 139.4 19.7 139.4 21.4 139.4 21.7 139.4 22 139.3 22.2L132.9 22.2Z" mask="url(#mask-6)" class="c"/>
          <path d="M140.4 24.7C140.9 25 141.8 25.4 142.6 25.4 143.8 25.4 144.4 24.8 144.4 24 144.4 23.2 143.9 22.8 142.7 22.4 141.1 21.8 140.3 20.9 140.3 19.8 140.3 18.3 141.5 17.1 143.4 17.1 144.3 17.1 145.2 17.4 145.6 17.7L145.2 18.9C144.9 18.7 144.2 18.4 143.4 18.4 142.4 18.4 141.9 18.9 141.9 19.6 141.9 20.3 142.4 20.7 143.6 21.1 145.2 21.7 146 22.5 146 23.9 146 25.5 144.7 26.6 142.6 26.6 141.6 26.6 140.7 26.4 140 26L140.4 24.7Z" mask="url(#mask-6)" class="c"/>
        </g>
  </g>
</svg>